<?xml version="1.0" encoding="utf-8"?>
<svg viewBox="0 0 500 500" xmlns="http://www.w3.org/2000/svg">
  <circle style="fill: rgb(230, 67, 71);" transform="matrix(1, 0, 0, 0.999999, -382.675158, -301.236632)" cx="632.675" cy="551.237" r="200"/>
  <path d="M 237.099 150.168 C 247.099 144.535 257.099 144.535 267.099 150.168 L 324.831 182.688 L 226.667 352.713 L 167.098 319.158 C 157.098 313.525 152.098 305.075 152.098 293.809 L 152.098 214.947 C 152.098 203.681 157.098 195.231 167.098 189.598 L 237.099 150.168 Z" style="fill: rgb(255, 255, 255);"/>
  <path d="M 351.871 214.892 L 351.871 293.754 C 351.871 305.02 346.871 313.469 336.871 319.102 L 268.637 357.539 L 351.842 213.423 C 351.861 213.907 351.871 214.397 351.871 214.892 Z" style="fill: rgb(255, 255, 255);"/>
  <path d="M 310.297 173.06 L 322.387 169.39 L 329.789 193.768 L 317.698 197.439 L 317.223 195.873 L 317.941 194.617 C 319.365 192.13 322.211 187.156 321.057 183.314 C 319.903 179.472 314.747 176.761 312.17 175.406 L 310.789 174.68 L 310.297 173.06 Z" style="fill: rgb(230, 67, 71);"/>
  <path d="M 214.876 337.977 L 226.966 334.307 L 234.368 358.685 L 222.277 362.356 L 221.802 360.79 L 222.52 359.534 C 223.944 357.047 226.79 352.073 225.636 348.231 C 224.482 344.389 219.326 341.678 216.749 340.323 L 215.368 339.597 L 214.876 337.977 Z" style="fill: rgb(230, 67, 71);" transform="matrix(-0.079075, 0.996869, -0.996869, -0.079075, 589.62474, 151.95717)"/>
  <path d="M 266.1 348.82 L 282.427 347.38 L 281.905 356.942 L 265.577 358.382 L 265.611 357.768 L 266.991 357.275 C 267.504 357.092 268.112 356.875 268.766 356.632 C 271.589 355.583 275.21 354.066 275.29 352.842 C 275.387 351.335 270.114 350.271 267.479 349.74 L 266.066 349.455 L 266.1 348.82 Z" style="fill: rgb(230, 67, 71);" transform="matrix(-0.741044, 0.671457, -0.671457, -0.741044, 713.993819, 430.400614)"/>
  <path d="M 341.426 216.327 L 357.753 214.887 L 357.231 224.449 L 340.903 225.889 L 340.937 225.275 L 342.317 224.782 C 342.83 224.599 343.438 224.382 344.092 224.139 C 346.915 223.09 350.536 221.573 350.616 220.349 C 350.713 218.842 345.44 217.778 342.805 217.247 L 341.392 216.962 L 341.426 216.327 Z" style="fill: rgb(230, 67, 71);" transform="matrix(0.260382, -0.965506, 0.965506, 0.260382, 45.583463, 500.281157)"/>
</svg>