<?xml version="1.0" encoding="utf-8"?>
<svg viewBox="0 0 500 500" xmlns="http://www.w3.org/2000/svg" xmlns:xlink="http://www.w3.org/1999/xlink">
  <defs>
    <path id="path-0" d="M 149.889 316.575 C 106.199 231.183 160.95 120.348 268.342 137.279 C 418.223 160.909 373.222 377.634 255.308 366.391" style="fill: none;"/>
  </defs>
  <g>
    <text style="fill: rgb(255, 255, 255); font-family: Didot; font-size: 30.9999px; line-height: 49.5999px; white-space: pre;" transform="matrix(0.909041, -0.416719, 0.416719, 0.909041, -80.817268, 126.303383)"><textPath xlink:href="#path-0">Borrow the Camera – go to the camera page </textPath></text>
  </g>
  <g transform="matrix(9.5, 0, 0, 9.5, 136, 136)">
    <path d="M9.82726 21.7633L14.3094 14L17.8413 20.1175C16.198 21.3021 14.1805 22 12 22C11.2538 22 10.5268 21.9183 9.82726 21.7633ZM7.88985 21.119C5.3115 19.955 3.31516 17.7297 2.4578 15H11.4226L7.88985 21.119ZM2.04938 13C2.01672 12.6711 2 12.3375 2 12C2 9.39284 2.99773 7.0187 4.6322 5.23859L9.11325 13H2.04938ZM6.15866 3.88251C7.80198 2.6979 9.81949 2 12 2C12.7462 2 13.4732 2.08172 14.1727 2.2367L9.6906 10L6.15866 3.88251ZM16.1101 2.88101C18.6885 4.04495 20.6848 6.27028 21.5422 9H12.5774L16.1101 2.88101ZM21.9506 11C21.9833 11.3289 22 11.6625 22 12C22 14.6072 21.0023 16.9813 19.3678 18.7614L14.8868 11H21.9506Z" style="fill: rgba(255, 255, 255, 0.25);"/>
  </g>
</svg>